{
	"asset":{
		"generator":"Khronos glTF Blender I/O v4.2.60",
		"version":"2.0"
	},
	"extensionsUsed":[
		"KHR_materials_specular"
	],
	"scene":0,
	"scenes":[
		{
			"name":"Scene",
			"nodes":[
				0,
				1,
				2,
				3,
				4,
				5,
				6,
				7,
				8
			]
		}
	],
	"nodes":[
		{
			"mesh":0,
			"name":"Cylinder001",
			"rotation":[
				0.70710688829422,
				0,
				0,
				0.7071066498756409
			],
			"scale":[
				0.18158477544784546,
				0.18158479034900665,
				0.18158479034900665
			],
			"translation":[
				6.257061004638672,
				0.12013570219278336,
				-1.2958893775939941
			]
		},
		{
			"mesh":1,
			"name":"Cylinder002",
			"rotation":[
				0.70710688829422,
				0,
				0,
				0.7071066498756409
			],
			"scale":[
				0.18158477544784546,
				0.18158479034900665,
				0.18158479034900665
			],
			"translation":[
				6.257061004638672,
				0.12013570219278336,
				-1.2958893775939941
			]
		},
		{
			"mesh":2,
			"name":"Cylinder003",
			"rotation":[
				0.70710688829422,
				0,
				0,
				0.7071066498756409
			],
			"scale":[
				0.18158477544784546,
				0.18158479034900665,
				0.18158479034900665
			],
			"translation":[
				6.257061004638672,
				0.12013570219278336,
				-1.2958893775939941
			]
		},
		{
			"mesh":3,
			"name":"Cylinder004",
			"rotation":[
				0.70710688829422,
				0,
				0,
				0.7071066498756409
			],
			"scale":[
				0.18158477544784546,
				0.18158479034900665,
				0.18158479034900665
			],
			"translation":[
				6.257061004638672,
				0.12013570219278336,
				-1.2958893775939941
			]
		},
		{
			"mesh":4,
			"name":"Cylinder005",
			"rotation":[
				0.70710688829422,
				0,
				0,
				0.7071066498756409
			],
			"scale":[
				0.18158477544784546,
				0.18158479034900665,
				0.18158479034900665
			],
			"translation":[
				6.257061004638672,
				0.12013570219278336,
				-1.2958893775939941
			]
		},
		{
			"mesh":5,
			"name":"Cylinder006",
			"rotation":[
				0.70710688829422,
				0,
				0,
				0.7071066498756409
			],
			"scale":[
				0.18158477544784546,
				0.18158479034900665,
				0.18158479034900665
			],
			"translation":[
				6.257061004638672,
				0.12013570219278336,
				-1.2958893775939941
			]
		},
		{
			"mesh":6,
			"name":"Tube001",
			"rotation":[
				0.70710688829422,
				0,
				0,
				0.7071066498756409
			],
			"scale":[
				0.18158477544784546,
				0.18158479034900665,
				0.18158479034900665
			],
			"translation":[
				6.257061004638672,
				0.12013570219278336,
				-1.2958893775939941
			]
		},
		{
			"mesh":7,
			"name":"Tube002",
			"rotation":[
				0.70710688829422,
				0,
				0,
				0.7071066498756409
			],
			"scale":[
				0.18158477544784546,
				0.18158479034900665,
				0.18158479034900665
			],
			"translation":[
				6.257061004638672,
				0.12013570219278336,
				-1.2958893775939941
			]
		},
		{
			"mesh":8,
			"name":"Tube003",
			"rotation":[
				0.70710688829422,
				0,
				0,
				0.7071066498756409
			],
			"scale":[
				0.18158477544784546,
				0.18158479034900665,
				0.18158479034900665
			],
			"translation":[
				6.257061004638672,
				0.12013570219278336,
				-1.2958893775939941
			]
		}
	],
	"materials":[
		{
			"doubleSided":true,
			"extensions":{
				"KHR_materials_specular":{
					"specularFactor":0
				}
			},
			"name":"wire_079006009",
			"pbrMetallicRoughness":{
				"baseColorFactor":[
					0.3382434844970703,
					0.030866999179124832,
					0.02326102927327156,
					1
				],
				"metallicFactor":0
			}
		},
		{
			"doubleSided":true,
			"extensions":{
				"KHR_materials_specular":{
					"specularFactor":0
				}
			},
			"name":"wire_243240248",
			"pbrMetallicRoughness":{
				"baseColorFactor":[
					0.6590312123298645,
					0.6443901658058167,
					0.6451644897460938,
					1
				],
				"metallicFactor":0
			}
		},
		{
			"doubleSided":true,
			"extensions":{
				"KHR_materials_specular":{
					"specularFactor":0
				}
			},
			"name":"wire_214229166",
			"pbrMetallicRoughness":{
				"baseColorFactor":[
					0.5342610478401184,
					0.5342610478401184,
					0.5342610478401184,
					1
				],
				"metallicFactor":0
			}
		}
	],
	"meshes":[
		{
			"name":"Cylinder001",
			"primitives":[
				{
					"attributes":{
						"POSITION":0,
						"NORMAL":1,
						"TEXCOORD_0":2
					},
					"indices":3,
					"material":0
				}
			]
		},
		{
			"name":"Cylinder002",
			"primitives":[
				{
					"attributes":{
						"POSITION":4,
						"NORMAL":5,
						"TEXCOORD_0":6
					},
					"indices":7,
					"material":1
				}
			]
		},
		{
			"name":"Cylinder003",
			"primitives":[
				{
					"attributes":{
						"POSITION":8,
						"NORMAL":9,
						"TEXCOORD_0":10
					},
					"indices":11,
					"material":0
				}
			]
		},
		{
			"name":"Cylinder004",
			"primitives":[
				{
					"attributes":{
						"POSITION":12,
						"NORMAL":13,
						"TEXCOORD_0":14
					},
					"indices":15,
					"material":1
				}
			]
		},
		{
			"name":"Cylinder005",
			"primitives":[
				{
					"attributes":{
						"POSITION":16,
						"NORMAL":17,
						"TEXCOORD_0":18
					},
					"indices":19,
					"material":0
				}
			]
		},
		{
			"name":"Cylinder006",
			"primitives":[
				{
					"attributes":{
						"POSITION":20,
						"NORMAL":21,
						"TEXCOORD_0":22
					},
					"indices":23,
					"material":1
				}
			]
		},
		{
			"name":"Tube001",
			"primitives":[
				{
					"attributes":{
						"POSITION":24,
						"NORMAL":25,
						"TEXCOORD_0":26
					},
					"indices":27,
					"material":2
				}
			]
		},
		{
			"name":"Tube002",
			"primitives":[
				{
					"attributes":{
						"POSITION":28,
						"NORMAL":29,
						"TEXCOORD_0":30
					},
					"indices":27,
					"material":2
				}
			]
		},
		{
			"name":"Tube003",
			"primitives":[
				{
					"attributes":{
						"POSITION":31,
						"NORMAL":32,
						"TEXCOORD_0":33
					},
					"indices":34,
					"material":2
				}
			]
		}
	],
	"accessors":[
		{
			"bufferView":0,
			"componentType":5126,
			"count":508,
			"max":[
				-21.52039909362793,
				6.687600135803223,
				-28.431800842285156
			],
			"min":[
				-28.64699935913086,
				3.664400100708008,
				-36.00400161743164
			],
			"type":"VEC3"
		},
		{
			"bufferView":1,
			"componentType":5126,
			"count":508,
			"type":"VEC3"
		},
		{
			"bufferView":2,
			"componentType":5126,
			"count":508,
			"type":"VEC2"
		},
		{
			"bufferView":3,
			"componentType":5123,
			"count":2616,
			"type":"SCALAR"
		},
		{
			"bufferView":4,
			"componentType":5126,
			"count":508,
			"max":[
				-21.823999404907227,
				6.426300048828125,
				-28.564199447631836
			],
			"min":[
				-28.505800247192383,
				4.085599899291992,
				-35.47819900512695
			],
			"type":"VEC3"
		},
		{
			"bufferView":5,
			"componentType":5126,
			"count":508,
			"type":"VEC3"
		},
		{
			"bufferView":6,
			"componentType":5126,
			"count":508,
			"type":"VEC2"
		},
		{
			"bufferView":7,
			"componentType":5123,
			"count":2616,
			"type":"SCALAR"
		},
		{
			"bufferView":8,
			"componentType":5126,
			"count":508,
			"max":[
				-10.836400032043457,
				10.593500137329102,
				-19.114700317382812
			],
			"min":[
				-18.700300216674805,
				5.3109002113342285,
				-24.272199630737305
			],
			"type":"VEC3"
		},
		{
			"bufferView":9,
			"componentType":5126,
			"count":508,
			"type":"VEC3"
		},
		{
			"bufferView":10,
			"componentType":5126,
			"count":508,
			"type":"VEC2"
		},
		{
			"bufferView":11,
			"componentType":5123,
			"count":2616,
			"type":"SCALAR"
		},
		{
			"bufferView":12,
			"componentType":5126,
			"count":508,
			"max":[
				-11.323800086975098,
				10.250800132751465,
				-19.28820037841797
			],
			"min":[
				-18.677499771118164,
				5.591599941253662,
				-23.84280014038086
			],
			"type":"VEC3"
		},
		{
			"bufferView":13,
			"componentType":5126,
			"count":508,
			"type":"VEC3"
		},
		{
			"bufferView":14,
			"componentType":5126,
			"count":508,
			"type":"VEC2"
		},
		{
			"bufferView":15,
			"componentType":5123,
			"count":2616,
			"type":"SCALAR"
		},
		{
			"bufferView":16,
			"componentType":5126,
			"count":508,
			"max":[
				-44.00630187988281,
				13.937000274658203,
				-25.818300247192383
			],
			"min":[
				-50.432899475097656,
				9.815199851989746,
				-33.6708984375
			],
			"type":"VEC3"
		},
		{
			"bufferView":17,
			"componentType":5126,
			"count":508,
			"type":"VEC3"
		},
		{
			"bufferView":18,
			"componentType":5126,
			"count":508,
			"type":"VEC2"
		},
		{
			"bufferView":19,
			"componentType":5123,
			"count":2616,
			"type":"SCALAR"
		},
		{
			"bufferView":20,
			"componentType":5126,
			"count":508,
			"max":[
				-44.15530014038086,
				13.490099906921387,
				-25.956199645996094
			],
			"min":[
				-49.959598541259766,
				10.073800086975098,
				-33.176300048828125
			],
			"type":"VEC3"
		},
		{
			"bufferView":21,
			"componentType":5126,
			"count":508,
			"type":"VEC3"
		},
		{
			"bufferView":22,
			"componentType":5126,
			"count":508,
			"type":"VEC2"
		},
		{
			"bufferView":23,
			"componentType":5123,
			"count":2616,
			"type":"SCALAR"
		},
		{
			"bufferView":24,
			"componentType":5126,
			"count":1007,
			"max":[
				-26.924400329589844,
				6.236000061035156,
				0.8659999966621399
			],
			"min":[
				-34.61069869995117,
				3.607300043106079,
				-29.669099807739258
			],
			"type":"VEC3"
		},
		{
			"bufferView":25,
			"componentType":5126,
			"count":1007,
			"type":"VEC3"
		},
		{
			"bufferView":26,
			"componentType":5126,
			"count":1007,
			"type":"VEC2"
		},
		{
			"bufferView":27,
			"componentType":5123,
			"count":5616,
			"type":"SCALAR"
		},
		{
			"bufferView":28,
			"componentType":5126,
			"count":1007,
			"max":[
				-17.583099365234375,
				10.733200073242188,
				0.9004999995231628
			],
			"min":[
				-37.365299224853516,
				7.76140022277832,
				-21.115800857543945
			],
			"type":"VEC3"
		},
		{
			"bufferView":29,
			"componentType":5126,
			"count":1007,
			"type":"VEC3"
		},
		{
			"bufferView":30,
			"componentType":5126,
			"count":1007,
			"type":"VEC2"
		},
		{
			"bufferView":31,
			"componentType":5126,
			"count":1007,
			"max":[
				-35.06769943237305,
				13.841400146484375,
				1.1549999713897705
			],
			"min":[
				-45.763999938964844,
				4.5142998695373535,
				-27.695899963378906
			],
			"type":"VEC3"
		},
		{
			"bufferView":32,
			"componentType":5126,
			"count":1007,
			"type":"VEC3"
		},
		{
			"bufferView":33,
			"componentType":5126,
			"count":1007,
			"type":"VEC2"
		},
		{
			"bufferView":34,
			"componentType":5123,
			"count":5616,
			"type":"SCALAR"
		}
	],
	"bufferViews":[
		{
			"buffer":0,
			"byteLength":6096,
			"byteOffset":0,
			"target":34962
		},
		{
			"buffer":0,
			"byteLength":6096,
			"byteOffset":6096,
			"target":34962
		},
		{
			"buffer":0,
			"byteLength":4064,
			"byteOffset":12192,
			"target":34962
		},
		{
			"buffer":0,
			"byteLength":5232,
			"byteOffset":16256,
			"target":34963
		},
		{
			"buffer":0,
			"byteLength":6096,
			"byteOffset":21488,
			"target":34962
		},
		{
			"buffer":0,
			"byteLength":6096,
			"byteOffset":27584,
			"target":34962
		},
		{
			"buffer":0,
			"byteLength":4064,
			"byteOffset":33680,
			"target":34962
		},
		{
			"buffer":0,
			"byteLength":5232,
			"byteOffset":37744,
			"target":34963
		},
		{
			"buffer":0,
			"byteLength":6096,
			"byteOffset":42976,
			"target":34962
		},
		{
			"buffer":0,
			"byteLength":6096,
			"byteOffset":49072,
			"target":34962
		},
		{
			"buffer":0,
			"byteLength":4064,
			"byteOffset":55168,
			"target":34962
		},
		{
			"buffer":0,
			"byteLength":5232,
			"byteOffset":59232,
			"target":34963
		},
		{
			"buffer":0,
			"byteLength":6096,
			"byteOffset":64464,
			"target":34962
		},
		{
			"buffer":0,
			"byteLength":6096,
			"byteOffset":70560,
			"target":34962
		},
		{
			"buffer":0,
			"byteLength":4064,
			"byteOffset":76656,
			"target":34962
		},
		{
			"buffer":0,
			"byteLength":5232,
			"byteOffset":80720,
			"target":34963
		},
		{
			"buffer":0,
			"byteLength":6096,
			"byteOffset":85952,
			"target":34962
		},
		{
			"buffer":0,
			"byteLength":6096,
			"byteOffset":92048,
			"target":34962
		},
		{
			"buffer":0,
			"byteLength":4064,
			"byteOffset":98144,
			"target":34962
		},
		{
			"buffer":0,
			"byteLength":5232,
			"byteOffset":102208,
			"target":34963
		},
		{
			"buffer":0,
			"byteLength":6096,
			"byteOffset":107440,
			"target":34962
		},
		{
			"buffer":0,
			"byteLength":6096,
			"byteOffset":113536,
			"target":34962
		},
		{
			"buffer":0,
			"byteLength":4064,
			"byteOffset":119632,
			"target":34962
		},
		{
			"buffer":0,
			"byteLength":5232,
			"byteOffset":123696,
			"target":34963
		},
		{
			"buffer":0,
			"byteLength":12084,
			"byteOffset":128928,
			"target":34962
		},
		{
			"buffer":0,
			"byteLength":12084,
			"byteOffset":141012,
			"target":34962
		},
		{
			"buffer":0,
			"byteLength":8056,
			"byteOffset":153096,
			"target":34962
		},
		{
			"buffer":0,
			"byteLength":11232,
			"byteOffset":161152,
			"target":34963
		},
		{
			"buffer":0,
			"byteLength":12084,
			"byteOffset":172384,
			"target":34962
		},
		{
			"buffer":0,
			"byteLength":12084,
			"byteOffset":184468,
			"target":34962
		},
		{
			"buffer":0,
			"byteLength":8056,
			"byteOffset":196552,
			"target":34962
		},
		{
			"buffer":0,
			"byteLength":12084,
			"byteOffset":204608,
			"target":34962
		},
		{
			"buffer":0,
			"byteLength":12084,
			"byteOffset":216692,
			"target":34962
		},
		{
			"buffer":0,
			"byteLength":8056,
			"byteOffset":228776,
			"target":34962
		},
		{
			"buffer":0,
			"byteLength":11232,
			"byteOffset":236832,
			"target":34963
		}
	],
	"buffers":[
		{
			"byteLength":248064,
			"uri":"Tube%20Worms.bin"
		}
	]
}
